<svg width="24" height="24" viewBox="0 0 24 24" fill="none" xmlns="http://www.w3.org/2000/svg">
<g clip-path="url(#clip0_1047_65)">
<path d="M6.40322 8.57755C6.54589 10.5927 5.44029 12.3109 3.93282 12.4155C2.42589 12.5201 1.08829 10.9712 0.945619 8.95555C0.802953 6.94043 1.90855 5.22191 3.41602 5.11734C4.92322 5.01302 6.26082 6.56217 6.40322 8.57755ZM16.7835 0.223619C15.3192 -0.145424 13.7238 1.14267 13.2203 3.10037C12.715 5.05807 13.4931 6.94412 14.9574 7.31316C16.4214 7.68194 18.0176 6.39437 18.5214 4.43641C19.1771 1.8884 17.1342 0.3116 16.7835 0.223619ZM20.2166 6.82242C18.6766 6.84507 17.4542 8.29201 17.488 10.5334C17.5219 12.7745 18.7958 13.7963 20.3374 13.7737C21.8766 13.751 23.0995 12.6929 23.0662 10.451C23.0214 7.5339 20.5854 6.81715 20.2166 6.82242ZM9.05735 -0.27002C7.59175 -0.27002 6.40375 1.35261 6.40375 3.35351C6.40375 5.35441 7.59175 6.97625 9.05735 6.97625C10.523 6.97625 11.7112 5.35441 11.7112 3.35351C11.7112 1.35261 10.523 -0.27002 9.05735 -0.27002ZM8.71815 10.9831C7.87149 12.1842 6.91149 13.3567 5.04829 14.8929C3.18482 16.4292 2.39442 17.4897 2.39442 19.0536C2.39442 20.6172 3.29789 23.2142 5.86695 23.2142C8.43602 23.2142 9.67815 22.6555 11.711 22.6555C13.7438 22.6555 15.0995 23.4376 17.668 23.4376C20.2374 23.4376 21.3102 21.036 21.3102 19.4724C21.3102 17.9085 20.8643 17.0234 18.8059 15.2388C17.4872 14.094 16.3691 13.1618 14.6187 10.7602C13.7534 9.57273 12.7555 9.41995 11.711 9.41995C10.6664 9.41969 9.56535 9.78267 8.71815 10.9831Z" fill="#E9B938"/>
</g>
<defs>
<clipPath id="clip0_1047_65">
<rect width="24" height="24" fill="white"/>
</clipPath>
</defs>
</svg>
