<svg width="147" height="82" viewBox="0 0 147 82" fill="none" xmlns="http://www.w3.org/2000/svg">
<path d="M6.38672 16.0801H20.8887C24.6777 16.0801 27.998 16.6074 30.8496 17.6621C33.7207 18.6973 36.1133 20.1133 38.0273 21.9102C39.9414 23.707 41.377 25.8262 42.334 28.2676C43.3105 30.709 43.7988 33.3164 43.7988 36.0898C43.7988 37.8867 43.5938 39.7031 43.1836 41.5391C42.7734 43.3555 42.1387 45.1133 41.2793 46.8125C40.4395 48.5117 39.375 50.1035 38.0859 51.5879C36.7969 53.0723 35.2637 54.3613 33.4863 55.4551C31.7285 56.5488 29.7168 57.418 27.4512 58.0625C25.2051 58.6875 22.7051 59 19.9512 59H6.38672V16.0801ZM12.1289 54.459H21.0059C23.8379 54.459 26.3086 54.0098 28.418 53.1113C30.5273 52.1934 32.2656 50.9629 33.6328 49.4199C35.0195 47.8574 36.0547 46.041 36.7383 43.9707C37.4219 41.8809 37.7637 39.6543 37.7637 37.291C37.7637 34.7129 37.3633 32.3984 36.5625 30.3477C35.7812 28.2773 34.6289 26.5293 33.1055 25.1035C31.6016 23.6582 29.7363 22.5547 27.5098 21.793C25.3027 21.0117 22.7832 20.6211 19.9512 20.6211H12.1289V54.459ZM74.1797 55.0449C76.4258 55.0449 78.4766 54.5957 80.332 53.6973C82.207 52.7988 83.8184 51.5684 85.166 50.0059C86.5137 48.4238 87.5586 46.5781 88.3008 44.4688C89.043 42.3594 89.4141 40.084 89.4141 37.6426C89.4141 35.084 89.0039 32.7305 88.1836 30.582C87.3828 28.4141 86.2695 26.5488 84.8438 24.9863C83.4375 23.4238 81.7773 22.2129 79.8633 21.3535C77.9688 20.4746 75.9277 20.0352 73.7402 20.0352C71.4551 20.0352 69.375 20.5039 67.5 21.4414C65.6445 22.3594 64.0527 23.6094 62.7246 25.1914C61.3965 26.7734 60.3613 28.6289 59.6191 30.7578C58.8965 32.8672 58.5352 35.123 58.5352 37.5254C58.5352 40.084 58.9355 42.4375 59.7363 44.5859C60.5371 46.7148 61.6406 48.5605 63.0469 50.123C64.4531 51.666 66.1035 52.877 67.998 53.7559C69.9121 54.6152 71.9727 55.0449 74.1797 55.0449ZM73.1836 59.5859C70.4492 59.5859 67.832 59.0977 65.332 58.1211C62.832 57.1445 60.625 55.748 58.7109 53.9316C56.8164 52.1152 55.3027 49.918 54.1699 47.3398C53.0566 44.7422 52.5 41.832 52.5 38.6094C52.5 36.3828 52.7734 34.2734 53.3203 32.2812C53.8867 30.2695 54.668 28.4141 55.6641 26.7148C56.6602 24.9961 57.8418 23.4434 59.209 22.0566C60.5957 20.6699 62.1191 19.498 63.7793 18.541C65.4395 17.5645 67.1973 16.8125 69.0527 16.2852C70.9277 15.7578 72.8613 15.4941 74.8535 15.4941C76.6309 15.4941 78.3691 15.709 80.0684 16.1387C81.7871 16.5684 83.4082 17.1934 84.9316 18.0137C86.4746 18.834 87.8809 19.8496 89.1504 21.0605C90.4395 22.2715 91.5527 23.6484 92.4902 25.1914C93.4277 26.7344 94.1504 28.4531 94.6582 30.3477C95.1855 32.2227 95.4492 34.2539 95.4492 36.4414C95.4492 38.6484 95.1758 40.7578 94.6289 42.7695C94.1016 44.7812 93.3398 46.6465 92.3438 48.3652C91.3672 50.0645 90.1953 51.6074 88.8281 52.9941C87.4805 54.3809 85.9766 55.5625 84.3164 56.5391C82.6758 57.5156 80.9082 58.2676 79.0137 58.7949C77.1387 59.3223 75.1953 59.5859 73.1836 59.5859ZM140.039 56.8027C137.324 57.8574 134.766 58.5898 132.363 59C129.961 59.3906 127.793 59.5859 125.859 59.5859C122.598 59.5859 119.629 59.0977 116.953 58.1211C114.277 57.125 111.982 55.7188 110.068 53.9023C108.174 52.0664 106.709 49.8594 105.674 47.2812C104.639 44.6836 104.121 41.793 104.121 38.6094C104.121 36.207 104.414 33.9707 105 31.9004C105.586 29.8105 106.406 27.916 107.461 26.2168C108.516 24.498 109.775 22.9746 111.24 21.6465C112.725 20.3184 114.346 19.2051 116.104 18.3066C117.881 17.3887 119.775 16.6953 121.787 16.2266C123.799 15.7383 125.879 15.4941 128.027 15.4941C129.434 15.4941 131.084 15.6211 132.979 15.875C134.873 16.1094 136.895 16.5488 139.043 17.1934L138.076 22.2324L137.49 22.5254C135.342 21.5488 133.35 20.8945 131.514 20.5625C129.678 20.2109 128.105 20.0352 126.797 20.0352C124.297 20.0352 122.021 20.4941 119.971 21.4121C117.92 22.3105 116.162 23.5508 114.697 25.1328C113.232 26.6953 112.1 28.541 111.299 30.6699C110.498 32.7793 110.098 35.0352 110.098 37.4375C110.098 39.7227 110.469 41.9297 111.211 44.0586C111.953 46.168 113.027 48.043 114.434 49.6836C115.859 51.3047 117.607 52.6035 119.678 53.5801C121.748 54.5566 124.121 55.0449 126.797 55.0449C127.969 55.0449 129.238 54.9375 130.605 54.7227C131.992 54.5078 133.418 54.1758 134.883 53.7266V38.9023H140.039V56.8027Z" fill="#E9B938"/>
<g clip-path="url(#clip0_23_207)">
<path d="M67.9368 33.4068C68.0914 35.6168 66.8936 37.5012 65.2605 37.6159C63.628 37.7306 62.179 36.0319 62.0244 33.8214C61.8699 31.6114 63.0676 29.7267 64.7007 29.612C66.3335 29.4976 67.7825 31.1965 67.9368 33.4068ZM79.1821 24.245C77.5958 23.8403 75.8674 25.2529 75.322 27.3999C74.7745 29.547 75.6175 31.6154 77.2038 32.0201C78.7898 32.4246 80.5191 31.0125 81.0648 28.8652C81.7752 26.0708 79.562 24.3415 79.1821 24.245ZM82.9013 31.4819C81.2329 31.5068 79.9087 33.0937 79.9453 35.5518C79.982 38.0097 81.3621 39.1303 83.0321 39.1054C84.6996 39.0806 86.0244 37.9201 85.9883 35.4614C85.9398 32.2622 83.3008 31.4762 82.9013 31.4819ZM70.8121 23.7036C69.2244 23.7036 67.9374 25.4832 67.9374 27.6776C67.9374 29.872 69.2244 31.6507 70.8121 31.6507C72.3999 31.6507 73.6871 29.872 73.6871 27.6776C73.6871 25.4832 72.3999 23.7036 70.8121 23.7036ZM70.4447 36.0449C69.5274 37.3623 68.4874 38.6481 66.469 40.3329C64.4502 42.0177 63.5939 43.1808 63.5939 44.8959C63.5939 46.6108 64.5727 49.4589 67.3559 49.4589C70.139 49.4589 71.4847 48.8462 73.6869 48.8462C75.8891 48.8462 77.3578 49.7039 80.1403 49.7039C82.9238 49.7039 84.086 47.0701 84.086 45.3553C84.086 43.6401 83.603 42.6695 81.373 40.7122C79.9445 39.4567 78.7332 38.4343 76.8369 35.8005C75.8995 34.4982 74.8184 34.3307 73.6869 34.3307C72.5553 34.3304 71.3625 34.7285 70.4447 36.0449Z" fill="white"/>
</g>
<defs>
<clipPath id="clip0_23_207">
<rect width="26" height="26.321" fill="white" transform="translate(61 24)"/>
</clipPath>
</defs>
</svg>
